<?xml version="1.0" standalone="no"?>
<!DOCTYPE svg PUBLIC "-//W3C//DTD SVG 20010904//EN"
 "http://www.w3.org/TR/2001/REC-SVG-20010904/DTD/svg10.dtd">
<svg version="1.0" xmlns="http://www.w3.org/2000/svg"
 width="74.000000pt" height="71.000000pt" viewBox="0 0 74.000000 71.000000"
 preserveAspectRatio="xMidYMid meet">
 <circle cx="37" cy="35.5" r="35.5" fill="white" />
<g transform="translate(0.000000,71.000000) scale(0.100000,-0.100000)"
fill="#000000" stroke="none">
<path d="M273 495 c-54 -27 -127 -100 -136 -135 -4 -16 3 -13 36 15 49 42 115
64 217 71 54 4 87 2 118 -10 36 -13 42 -13 42 -1 0 8 -13 29 -29 47 -28 32
-33 33 -113 36 -73 3 -89 0 -135 -23z"/>
<path d="M542 373 c3 -30 9 -31 88 -17 l35 6 -24 19 c-14 12 -39 19 -63 19
-37 0 -39 -2 -36 -27z"/>
<path d="M396 357 c-26 -19 -18 -61 12 -65 44 -7 67 32 36 62 -19 19 -25 20
-48 3z"/>
<path d="M540 261 c0 -7 -21 -22 -47 -34 -41 -18 -72 -22 -211 -25 l-162 -4 0
-34 0 -34 151 0 c138 0 155 2 191 22 39 22 97 102 84 115 -3 4 -6 1 -6 -6z"/>
</g>
</svg>
